<svg xmlns="http://www.w3.org/2000/svg" viewBox="-8446 -8538 16883 16999" width="400" height="403" role="img" aria-labelledby="t"><title id="t">New Kensington within ZIP 15068. Dashed lines are city limits.</title><defs><clipPath id="z"><path d="M-5870 4540l-116 52-66 11-88-3-86-23-258-113-68-15-67 0-104 29-140 66-87 29-96 9-222-19-90 5-448 71-266 86-64-223-18-108-1-64 27-295-4-83-54-332 366-38 755-57 83-18 216-19 210 22 229 49 193 64 486 111 307 67 373 57 191-13 219-29 193-49 326-154 233-164 130-107 201-214 67-115 88-260 41-99 7-114-12-101-26-89-87-179-567-1504-211-752 31-664 16-203 41-348 89-335 84-167 77-118 559-730 532-332 246-124 455-208 678-188 685-276 379-178 378-202 241-151 354-595 113-348 92-160 103-148 53-65 28-23 181-105 646-552 74-73 680-950 249-438 145-386 23-124 193-2 577 72 96-63-27 37-81 75 345 1069-94 477 225 144 85 63 30 47 6 39-12 28-132 131-221 183-43 99 254 115 174 116 42 2 42-13 75-49 41-56 27-10 143 20 164-3 93 15 157-38 50 21 50 63 14 2 94-51 116 78 147 73 55 12 208 15 17 5 22 23 49 154 12 67-11 71-38 145-1 12 6 4-13 69 5 26 8 10-348 1223-643 653-183-77-256 347-50-27-164-48-120-60-141-32-145-2-86-33-34-24-19-25-16 14 79 107 395 95-66 30-45 2-54 140 45 67 386 459 813 716 761 755 425 407-195 222-53 44-62 28-14 30 5 61-35 5-51-35-43-18-87-11-80 14-53-8-60 56 182 31 77 122 56 72 135 86 26 45 549 482 72-63 66 2 81 84 20 39 105 84 49 53-13 67 11 152-8 75-145 465-29 68-60 69-82 38-50 7-245-12 45 44 204 80 66 78 32 20 148 50 108 81 102 27 34 31 66 88 36 33 165 108 54-6 61-46 115-46 49-8 68 3 145-49 70 15-1492 1583-427 234-40-13-36 7-50 92-40 54-42 42-42 26-59 8-14 12-16 37-41 37-78 50-24 12-32 2-38-11-40 7-101 66-71 11-108 84-35 45-119 48-133 105-63 27-11 18-123 13-226-5-247 29-121 48-75 45-37 11-75 59-109 6-59 33-111-33-136 64-264 168 45 10 75 39 186 26 160 83 400 90 67-20 313-247 22-7 127 20 100 26 131 68 58 18 38-4 103-32-161 129-296 329-670 714 7 14 25 10 72-18 75 60-119 106-78 107-8-19-131-54-39-37-78-43-10-22-2-48-16-46 2-26-145-168-85-81-72-27-38-32-50-7-59-49-46-54-73-125-129-151-30-90-45-35-48-64-77-76-39-11-77-4-48-19-65-91-15-31-11-52-34-49-121-136-73 38-60 53-97 46-29 27-24 38 0 27 44 87 0 59-10 12-68 15-12 28 12 28 66 82 4 20-32 70-107 90-31 40 20 218 37 142 0 31-78 185-62 48-32 44-11 34 12 47 137 229 34 34 34 13 22 48-13 21-138 83-60 64-33-150-24-32-33-18-6-1610 14-174-114 16-40 14-17 15-42 72-59 43-238-1-204 62-18 38-4 116-22 193 6 173-6 57-17 23-25 14-59 10-34 17-52 79-17 14-52-12-41 2-98 60-157-39-72-33-156-47-70-33-51-34-47-46-103-156-263-355-105 26-97 7-36 23-80 94-19 33-59 160-28 129-92 194-35 34-189 97-28-46-33-26-238-18-67-21 112-347-425-590-250 174-59 11-49 29-45 48-18 53 5 13-8 12-258 121 20 314 21 131 96 210 141 51-206 46-140 42-189 39-22 14 23 34-21 64-178 92-114 76-74 9-46 35-48 1-104-17-25 8-79 53-63-45 21-178-2-114 23-111 0-21-18-48-108 24-99 50-40 10-106 3-84-14-30-22-46-53-33-92-13-17-104-108-30-21-18 4-21 44-22 135-19 39-57 50-97 46-17 16-30 58-22 4-59-13-20 10-54 163-75 40-90 82-187 276-41 96-34 167-1 107-34 78 4 111 18 106-20 139-61 11-14-13-28 6-22 14 8 24-7 6-161-462-36-73-233-348-50-112-28-99-11-80-21-391-17-80-20-58-28-59-61-89-62-65-55-41 73-200 20-163 37-56 23-66 49-36 10-16 18-57 3-119 26-56 13-72 45-78 24-26 176-124 45-19 104-25 16-14 21-113 14-31 134-100 72-89 64-155 67-86 7-35 7-115 14-16 61-15 9-25-96 11-355-35-134-4-178 14-153 32-147 50z"/></clipPath><clipPath id="tc"><path d="M-3998 -148l204-71 33-21 222-79 114-53 5-22 442-154-10-47 89-69 29-28 22-10 84-62 271-216-69-88-130 98-38-152 44-8-33-206 250 45 305 40-115-249-133-13-390-64 17-37-131-58 97-194-58-26-87-16-86 32-21 2-50-8-29-19-17-2-133 49-222 58-168-34-41-19-3 4-103-75 540-705 124-117 151-97 276-143 246-124 455-208-18 262 23 80-16 8-26 51 9 67-1 76 42 77 17 49-2 12 25 84 62 262 312 670 376-202 194 352-366 186 42 68 19 41 9 8 31 9 67 1 28 12 121 106 151 104 24 27 26 6 27 37 17 25 23 91 48 296 40 81 43 70 13 37 4 33 5 10 23 16 75 2 98 14 30 9-48 161-2 29-47 171-29 87-77 273-56-16 24 185 23 22 40 185-103 184-53 124-48-15 22 153 18 27-288 93-468-97-8 65-63-14 10-63-30-7-33 321-248 61 48 154-61 27-6 7-105-42-136-34-64-72-22-11-132-23-80 8-258-2 0-18-8-20-199 40-105 26-25 10-21-58-15-6-23 4-163 84-197 127-478-1286-211-752 149-58z"/></clipPath></defs><path d="M-5870 4540l-116 52-66 11-88-3-86-23-258-113-68-15-67 0-104 29-140 66-87 29-96 9-222-19-90 5-448 71-266 86-64-223-18-108-1-64 27-295-4-83-54-332 366-38 755-57 83-18 216-19 210 22 229 49 193 64 486 111 307 67 373 57 191-13 219-29 193-49 326-154 233-164 130-107 201-214 67-115 88-260 41-99 7-114-12-101-26-89-87-179-567-1504-211-752 31-664 16-203 41-348 89-335 84-167 77-118 559-730 532-332 246-124 455-208 678-188 685-276 379-178 378-202 241-151 354-595 113-348 92-160 103-148 53-65 28-23 181-105 646-552 74-73 680-950 249-438 145-386 23-124 193-2 577 72 96-63-27 37-81 75 345 1069-94 477 225 144 85 63 30 47 6 39-12 28-132 131-221 183-43 99 254 115 174 116 42 2 42-13 75-49 41-56 27-10 143 20 164-3 93 15 157-38 50 21 50 63 14 2 94-51 116 78 147 73 55 12 208 15 17 5 22 23 49 154 12 67-11 71-38 145-1 12 6 4-13 69 5 26 8 10-348 1223-643 653-183-77-256 347-50-27-164-48-120-60-141-32-145-2-86-33-34-24-19-25-16 14 79 107 395 95-66 30-45 2-54 140 45 67 386 459 813 716 761 755 425 407-195 222-53 44-62 28-14 30 5 61-35 5-51-35-43-18-87-11-80 14-53-8-60 56 182 31 77 122 56 72 135 86 26 45 549 482 72-63 66 2 81 84 20 39 105 84 49 53-13 67 11 152-8 75-145 465-29 68-60 69-82 38-50 7-245-12 45 44 204 80 66 78 32 20 148 50 108 81 102 27 34 31 66 88 36 33 165 108 54-6 61-46 115-46 49-8 68 3 145-49 70 15-1492 1583-427 234-40-13-36 7-50 92-40 54-42 42-42 26-59 8-14 12-16 37-41 37-78 50-24 12-32 2-38-11-40 7-101 66-71 11-108 84-35 45-119 48-133 105-63 27-11 18-123 13-226-5-247 29-121 48-75 45-37 11-75 59-109 6-59 33-111-33-136 64-264 168 45 10 75 39 186 26 160 83 400 90 67-20 313-247 22-7 127 20 100 26 131 68 58 18 38-4 103-32-161 129-296 329-670 714 7 14 25 10 72-18 75 60-119 106-78 107-8-19-131-54-39-37-78-43-10-22-2-48-16-46 2-26-145-168-85-81-72-27-38-32-50-7-59-49-46-54-73-125-129-151-30-90-45-35-48-64-77-76-39-11-77-4-48-19-65-91-15-31-11-52-34-49-121-136-73 38-60 53-97 46-29 27-24 38 0 27 44 87 0 59-10 12-68 15-12 28 12 28 66 82 4 20-32 70-107 90-31 40 20 218 37 142 0 31-78 185-62 48-32 44-11 34 12 47 137 229 34 34 34 13 22 48-13 21-138 83-60 64-33-150-24-32-33-18-6-1610 14-174-114 16-40 14-17 15-42 72-59 43-238-1-204 62-18 38-4 116-22 193 6 173-6 57-17 23-25 14-59 10-34 17-52 79-17 14-52-12-41 2-98 60-157-39-72-33-156-47-70-33-51-34-47-46-103-156-263-355-105 26-97 7-36 23-80 94-19 33-59 160-28 129-92 194-35 34-189 97-28-46-33-26-238-18-67-21 112-347-425-590-250 174-59 11-49 29-45 48-18 53 5 13-8 12-258 121 20 314 21 131 96 210 141 51-206 46-140 42-189 39-22 14 23 34-21 64-178 92-114 76-74 9-46 35-48 1-104-17-25 8-79 53-63-45 21-178-2-114 23-111 0-21-18-48-108 24-99 50-40 10-106 3-84-14-30-22-46-53-33-92-13-17-104-108-30-21-18 4-21 44-22 135-19 39-57 50-97 46-17 16-30 58-22 4-59-13-20 10-54 163-75 40-90 82-187 276-41 96-34 167-1 107-34 78 4 111 18 106-20 139-61 11-14-13-28 6-22 14 8 24-7 6-161-462-36-73-233-348-50-112-28-99-11-80-21-391-17-80-20-58-28-59-61-89-62-65-55-41 73-200 20-163 37-56 23-66 49-36 10-16 18-57 3-119 26-56 13-72 45-78 24-26 176-124 45-19 104-25 16-14 21-113 14-31 134-100 72-89 64-155 67-86 7-35 7-115 14-16 61-15 9-25-96 11-355-35-134-4-178 14-153 32-147 50z" fill="#0f1419"/><path d="M-3998 -148l204-71 33-21 222-79 114-53 5-22 442-154-10-47 89-69 29-28 22-10 84-62 271-216-69-88-130 98-38-152 44-8-33-206 250 45 305 40-115-249-133-13-390-64 17-37-131-58 97-194-58-26-87-16-86 32-21 2-50-8-29-19-17-2-133 49-222 58-168-34-41-19-3 4-103-75 540-705 124-117 151-97 276-143 246-124 455-208-18 262 23 80-16 8-26 51 9 67-1 76 42 77 17 49-2 12 25 84 62 262 312 670 376-202 194 352-366 186 42 68 19 41 9 8 31 9 67 1 28 12 121 106 151 104 24 27 26 6 27 37 17 25 23 91 48 296 40 81 43 70 13 37 4 33 5 10 23 16 75 2 98 14 30 9-48 161-2 29-47 171-29 87-77 273-56-16 24 185 23 22 40 185-103 184-53 124-48-15 22 153 18 27-288 93-468-97-8 65-63-14 10-63-30-7-33 321-248 61 48 154-61 27-6 7-105-42-136-34-64-72-22-11-132-23-80 8-258-2 0-18-8-20-199 40-105 26-25 10-21-58-15-6-23 4-163 84-197 127-478-1286-211-752 149-58z" fill="#26303a"/><path d="M2560 7200l-32 10 17-28zm-10893-3888l169-62 456-70 568-2 178 34 29-28 49 14 75 69 21 374-652 34-148-29 30-23-179 1 27 6-6 27-241 11-547 121-20-165 525-113 115-65-45 42 15 14 116-55 40 18-28 18 42-19-138-96 18 32-167-19-481 126 60-159zm522 184l-21 6zm445-137l-101-2-150 35 89 71 210 9 104-28 19-39zm-421-49l-50 15 75 31 9-32zm-65 117l32 9-40 9zm145 211l122-1zm12405 1550l6-22 62 13zm-377 26l35-3 4 33-18 6zm2004-1488l-1-18 28 12zm322 466l-5-42 64-18-18 70zm-1333-7508l13-61 104-55-75 127zm-4558-1397l54-109 38 18-6 39-75 120-70 50zm1803-224l-39-39 52-118 42-36 6 143-37 50zm-2011-89l-46 116-15-8zm-168-118l16 3-18 13zm-3740 2864l243-325-41 117zm6608-6288l-19 107 32 77-16 177-163 377-238 428-332 448-469 795-367 492-369 363-469 358-219 434-89 87-38 77-107 70 50-11-50 85-354 243-465 169-555 313-283 126-164 45-330 40-434 141-443 279-229 88-312 180-167 239-9 61-120 174-147 130-218 340-99 451-68 439-37 445 23 231 66 320 128 396 322 731 58 207 85 191 139 231-17 50 67-6-84 83 26 29 82 16 78 285-30 252-202 413-111 146-387 393-222 149-158 81-304 72-547-15-1091-187-206-74-171-32-283-20-21-374 578 161 156 66 257 50 460 136 296 59 314 11 207-71 457-210 102-13 173-174 173-224 106-204 50-160-4-246-268-567-195-812-339-939-46-364 87-1028 53-36-26-22 2-92 36-156 199-495 71-99 38 14 62-193 278-339 106-120 214-183 256-115 166-38 10-43 736-338 160-45 15-63 39 45 830-206 424-202 400-144 200-107 129-104 104-109 177-386 53-80 13 29 69-144-29 6 86-180 68-226 100-149 466-408 64-23 494-481 0-52 51-78 148-117 167-182 348-517 288-697 56-233 13-289 133-57 202-4zm-2110 3076l-178 131-76 135-46 152 52-6 103-74 129-131 216-157 183-203 27-40-20-63-85-12-216 172 2 24 76-14 73 25-39 57-114 42-29-22 4-58zm541-338l91-103-84 71zm-6057 4643l-30 9zm-1-30l-8 28zm-11 0l-8 29zm-10 1l-9 28zm20-24l1 19-31 1-1-18zm32 17l12 21zm62-31l-8 22zm-19 8l-23 7zm-29-2l-16 17zm126-124l19 30-25 12zm-8 46l37-10-13 38zm5922 1328l80 90-23 20-87-79zm1564-1302l34-2 14 45 61 51 21 64-201-68 11-70z" fill="#123150"/><g clip-path="url(#z)"><path d="M2680 5566l2-18m-6646-4881l478 1286m3704 1026l-182-34-366-143-123-107-129-45-76-127 20-32-112-43-96-183-82-70-378-35-104 27-90 70-198-94-132-125-133-70-245-64-93 11-53 37-4 46-131 55-205 34-102-23m0 0l-97-23-99-63m0 0l-111 30-109 62-206 47m-68-164l68 164m0 0l98 380-4 213-30 96m5326 2033l-184-111-62-77-62-8-62-57-56-93-37-144-249-271-122-82-207-4-109-78-232-303-99-200-76-96 0-75-55-135-69 15-73-141m-6133 701l-254-69-805-98m3620-707l-46 148-120 237-162 208-219 192-227 132-247 83-256 54-709-45-575-135m-1795-338l-59 48-117-53-26-55m460-16l-185 35-73 41m736 171l-187-191-183-58-108 2m-255 238l-62-114m309 156l-247-42m514 62l-267-20m486-33l-219 53m-392 71l-122 1m514-72l-271 72-121-1m-122 1l-252-29m252-105l-71 56-181 49m0 0l-123 4-433 106m805-377l-28-50-174-10-582 157m11176 2109l4-81-76-84 10-54-156-133-49-146-41 29-58-19-10-62-60-30-36-149-114-15-97 48-27-13m1575 1706l-150-79-254-348-30-90-140-147-47-34-147-28-97-138-2-115m902 990l-35-11m-242 252l25-33m0 0l64 8-64-8m751 322l-215-132-42-165-242-233m-1903-12684l-89 443-277 315-403 315-219 85m2363-3748l9 382-29 184-145 386-249 438-680 950-720 625-209 128m-340 655l-23 68m0 0l-183 308m11-323l-43 84 32 239m63-432l-52 109m379-495l-243 212-84 174m327-386l-184 442m340-655l-156 213m-390 818l-197 303-591 335-388 182m-2062 583l7 209m701-332l-977 475-151 97-124 117m552-830l-8 264m1386-311l-678 188m1354-460l-676 272m-1930 877l-540 705m-419 680l163 21m256-701l-161 285-78 287-68 599-31 664m0 0l211 752" fill="none" stroke="#1d4a78" stroke-width="46" stroke-linecap="round" stroke-linejoin="round"/><g fill="none" stroke-linecap="round" stroke-linejoin="round" opacity=".45"><path d="M-5592 7598l-68-63m169 264l-101-201m552-2479l-159 53-197 145-91 217-2 119m0 0l-31 70m204 570l-240 4-113 61m149-635l-44 33-58 115-19 158-86 240 6 41 52 48m-293 115l12-84m0 0l39-21m3 106l-3-106m0 0l104 9m138-19l-72 66-66-47m16 662l25-57m-140-424l-2-84m2 136l0-52m-91-67l35-18m161 357l9-24m-903-3716l-1-38m4868-5116l-235 82m378-130l-46 14m0 0l-97 34m276-93l-133 45m292-97l-159 52m284-97l-125 45m381-144l-77 29m0 0l-19 8m-119 46l-41 16m160-62l-119 46m-810 3208l111 21m-145-38l34 17m174 33l38-54m-101 42l63 12m38-54l23-35m84-226l8-42m1 133l-9-91m-22 174l31-83m-47 87l16-4m-62 52l46-48m-790-177l56 70 191 84m-256-164l9 10m-29-27l20 17m256 164l81 17 66 42m51 35l30 16m-81-51l51 35m-921 440l8-34m-8 34l-23-28m0 0l-13-29m0 0l-66-206m5-409l-12-77 54-109m0 0l25-48m0 0l95-195m55 1254l-120-153m145 144l-25 9m46 59l-46-59m27-1656l92 43m13-25l30-66m-43 91l13-25m30-66l32-74m50-142l12-44m0 0l9-30m0 0l8-28m0 0l18-98m0 0l-14-58m0 0l-8-33m-75 433l50-142m-34-548l-38-152m51 212l-13-60m18 79l-5-19m27 112l-2-10m0 0l-20-83m41 178l-19-85m-129-613l-21-168m37 265l-16-97m40 239l-24-142m35 192l-11-50m-111-114l87-28m-179 57l92-29m-184 58l92-29m39 1087l30 12m-82 402l174-359m-215-37l93-18m-188 36l95-18m-151-1045l113-31m234-351l8-23m0 0l109-196m0 0l57-60 160-39m0 0l195-19m0 0l210-66m-2497 6319l-86 51-14 146-62 78-78 181-159 141m1042-617l117 233 133 488m9-4920l16-3m-39 295l-43-110m49 152l-6-42m6 42l13-3m-62-149l-10-14m-42-146l118-22m-76 168l-42-146m285 275l92-18m-56-316l51-9m-146 26l95-17m-126 352l90-18m-171 34l81-16m-61-318l92-17m31-1117l-7-173m30 436l-23-263m-7-173l94 16m0 0l95 15m-71 875l-19-104m0 0l-15-80m0 0l-23-120m0 0l-31-166m125 667l-37-197m74 396l-33-179m0 0l-4-20m92-10l-92 10m4 20l88-30m-125 171l29-10-12-130 108-31m-58-1062l94-15m0 0l94-21m-130 1098l94-17m0 0l92-18m-97 1011l-17-92m0 0l-16-92m0 0l-33-165m0 0l-28-154m0 0l-21-111m-41 123l62-12m-21-111l-29-153m-65 287l53-11m187 652l-31-161m66 205l-20-45m102 4547l-346-251m0 0l-78-58-76-153-114-39m-301 1363l29-50 44 18 112 118 64 133 58 45 194 5 233-83m-238 644l-62 80m277-252l-95 55-120 117m-685-564l17-11m0 0l139-91 33-164m290-1408l11 45m0 0l-288 569-238 220-316 218m26 2110l-108 27-232-77m20-121l-22-225 33-79 36-277 44-102 174-260 179-142 53-156 100-2 49-74m-352-622l-105 35-284 25-429 143m357-1359l-49 53-32 132m228 3031l20-121m-20 121l-110 39-70 115m2688-1561l-182 37-92 59-126 41-225 150-149 29-128 74m818-2263l-11 98 17 32 149 53m0 0l21 5m256 1596l-348 89m437-108l-89 19m-256-1596l239 49 203-107m0 0l63-18 153 57m55 1360l-79-28m-115 11l-38 42-32 145-104 66m984-97l-69-77-235-17-115-38-122 23-75-30m259 482l48-140 309-203m-671-1499l195 25 161 364 614 4 94 36m-393 1070l185-93 52-53 97-214 68-243 69-102 69-61 177-22m-134-157l165 145m-355-270l190 125m165 145l246-123 216-194m-381 425l51 71m-132-179l81 108m-112-96l31-12m615 960l305-217m-480 307l175-90m-483-781l273 373 134 75 381 116m0 0l82 31 15 120 28 30 420 19m260 469l47 31 185 15 136 81 29 40 31 147m-1233-983l105-63 89 10 65-91 131-57 5-264 42-321 215-62 225 4 58-42 64-91 152-27m82 1987l250 307m1273-1257l11-5m0 0l59 29m0 0l142 157m0 0l4 5m0 0l203 214m0 0l170 180m6 6l187 362m1706-5190l70-34m0 0l409-166 350 2 122-45m0 0l77-93m189-844l-29 120 7 198-167 526m151-1386l24 112m0 0l64 285-50 145m-400-1487l28 39m-53-182l25 143m-1375-1466l44 13m-243-206l131 148 68 45m-818-870l186 178m416 479l17 20m-992-813l218 57 155 79m-943-283l570 147m-2775 1117l-272-82m457 143l-76-26m0 0l-109-35m199 65l-14-4m115 43l-101-39m188 73l-87-34m162 15l-75 19m40 16l-26-10m0 0l0 34m0-34l-14-6m54 21l-14-5m1305-1652l-25-36m0 0l-7-9m505 279l-473-234m-2076 1900l-53 106m73-225l-20 119m-53 106l-6 15m-775 6648l46-66 34-234 48-82 398-47 263 34 68-35 88-109 32-160-7-106-249-440-13-97m-1629-6610l-153 67m221-56l-68-11m-153 67l-93 43m0 0l-9 4m0 0l-95 40m0 0l-20 8m0 0l-48 16m946 45l-54-28m0 0l-20-11m0 0l-74-42m-147-83l-165-48m312 131l-147-83m395 214l-100-50m140 70l-40-20m339 162l-18-9m0 0l-63-29m0 0l-44-22m-10-4l-84-40m94 44l-10-4m-84-40l-80-38m605 243l-132-38m0 0l-11-4m0 0l-163-59m346 112l-40-11m107 31l-67-20m109 33l-42-13m49 15l-7-2m153 43l-146-41m262 76l-116-35m218 319l-18 122m52-365l-34 243m34-243l-136-41m60-225l85 143-9 123m-128-345l52 79m-101-255l-5 81 54 95m-9-299l-36 110m0 0l-4 13m63-209l-23 86m-405-710l154 155 10 185 54 160 42 29 154 0 21 36-7 59m-539-680l111 56" stroke="#5d6975" stroke-width="42"/><path d="M-6898 4559l-148 21m66-1462l40-8m0 0l176-18m-381 44l165-18m-359 37l194-19m687-51l8-1m-104 3l96-2m-306 7l69-2m0 0l141-3m1055 1271l-175 65-234 140-122 37-143-7-389-146-126 16-210 96m1472-219l-73 18m159-34l-86 16m-2087-1191l100 7m0 0l74-1m293 1425l-218-18-482 66m73-1500l59 7m0 0l101 14m-729 36l26-5m6810-2920l57-47m-183 168l126-121m57-47l112-38m0 0l152-31 135 66m-720 333l74-96m0 0l64-66m-178 233l40-71m-48 113l-42-22m0 0l50-20m-112 0l62 20m-771-219l11 7m-43 156l-67 15m45 29l10 8m55-208l205 6 493 186m-1283 2459l44-6m-10-82l-34 88m-14-2400l89-14m0 0l83-15m0 0l155-29m74-12l88-10m0 0l45 29m-207-7l74-12m-1372 227l-156-450m72 217l9 28m-759 3696l-416 3m624 19l-208-22m364 16l-156 6m449-72l-103 7-190 59m643-20l-118 27-232-73m445-2227l-116-792-152-422m0 0l-75-205m0 0l10-35m720 140l97-18m-267 49l170-31m-181 34l11-3m382-68l104-20m-132 24l28-4m-115 19l87-15m146 2376l-78 162m0 0l-117 243-67 266-65 64-161 90-263 369-61 50m8333-2397l291 118 125 5m-1190-437l774 314m-872-353l22 9m0 0l76 30m2014 410l211 43m-508-72l297 29m-556-62l259 33m-276-34l17 1m-268 89l251-90m784 106l99 89 63 124m0 0l265 584 111 188 375 339m0 0l81 52m0 0l159 73 153 168m422 74l-219 16-203-90m-5011-1813l113 17 158-90 73-14 320 46 474-264 124-19 120 28m-1590 167l208 129m-258-157l50 28m-687-203l135 45m0 0l4 1m0 0l180 39m0 0l318 90m-1828-1718l230 84m251 118l157 146m-217-187l60 41m-121-70l61 29m-191-77l130 48m278 216l130 60m0 0l205 62m151 83l58 74m-209-157l151 83m58 74l42 126-7 115-144 320-20 91m0 0l6 71m0 0l25 75m0 0l107 118m-2217-1321l54 0m0 0l17-4m0 0l380-222m0 0l119-1 88 34 76-17m0 0l102-42m0 0l78-5 112 35" stroke="#ee8f45" stroke-width="76"/><path d="M-7511 4859l85 71m0 0l56 86m1568 1776l10 14m26 176l-28-4m2-172l32 103-6 73m-1879-2230l134 107m-224-210l90 103m-90-103l-11-21m0 0l-36 6m0 0l47 15m-47-15l-131 38m0 0l-194 64m-51 16l51-16m-172 57l121-41m6076-5350l44-52 74-29 247 61 125-8 308-187 386-84m-63-1l-352 82-213 151-82 33-118 3-179-55m789 2820l125 12m-182-14l57 2m-185-5l102 2m0 0l26 1m-438-59l139 40 171 16m-479-128l169 72m-603-220l196 49 238 99m-125-2687l-88 2-63 38-42 65-8 101m30 236l0-64m0 0l76-239-131-282m-14-21l137 291-9 53-54 8-21-33 10-69m177-86l-147-48-79-95m68-1155l117 325 16 202-49 181-165 297m-1 111l1-111m-1 111l0 18m14 21l-14-39m0 18l39 370m30 172l-24-214 18-78m-24 120l21 238m-242 320l191-161 60-161m-9 2l-66 163-183 151m0 0l-132 120-58 156m12 4l53-156 132-118m-193 342l8-68m-12-4l-7 65m0 0l-32 163m-12 52l55-208m-43 156l-22 44m113 3348l34 30-6 44-94 90-131 58-9 32 124 290 176 190-10 166m-184-3042l358 27m-358-27l-119-15m-10 7l129 8m-119-15l-41-7m41 7l-35-35m-8 37l33 5m-39 38l39-38m-31-14l6-28m-50-112l37 93m13 19l-13-65-37-47m37 93l-36 37m33 8l-33-8m36-37l-3 45m0 0l-1 9m11-7l-10-2m8 11l2-9m-11 7l9 2m-6 43l6-43m-35 159l29-116m-3-45l-26 161m-37 97l37-97m-37 97l-45 95m-92 1661l65 44 161 28 92 59 153 12m-589-903l35 149-21 255 27 24 154 24m0 0l12 32-150 154 6 56 55 66m-128-842l10 82m38-231l-48 149m195-759l-147 610m172-670l-25 60m-174-504l128 59 179 32m-32-17l-145-23-130-51m-6 0l6 0m-51 8l45-8m148-716l-30 16m30-16l-15 22m0 0l-21 41m8 227l-20-117 24-106m-12-4l-24 110 20 119m0 0l36 90m0 0l-24-92m24 92l35 101m0 0l21 68m54 74l-54-74m80 109l-26-35m217-1009l-323 384m-24 67l357-443m-92-3962l-33-146m-30 16l63 130m551 1212l53 138m-137-364l84 226m-263-687l179 461m-179-461l-289-574-24-101m-28 14l341 661m-2052 2342l97 560 88 285m0 0l64 192m27 18l-27-18m8 25l19-7m-27-18l8 25m-290-1239l33 177m-52-274l19 97m309 1232l285-104 152-28m15-3l-7 1m29-46l-29 46m35-4l-28 3m28-3l3 30m0 0l27 126m1-48l-31-108m31 108l-18-111m-41 6l31 27m-38-26l-8 2m46 24l-17 28-25-9-31-167m0 0l11-48m-11 48l21-34m309 1087l43 211m-31-213l-45-232m-13 5l46 229m-33-234l-59-236m-11 1l57 240m-46-241l-79-82-19-74m-11 3l21 78 77 76m-87-157l-29-155m-11 2l29 156m-18-158l-10-46m283 1036l-42-211m302 345l-47 7m1 5l46-12m-47 7l-82-4-61-30-70-107m-11 2l86 122 65 27 74-5m94 3881l-107 247-123 565 5 105 55 92m17 501l-40-29m42-422l-42 422m23-472l19 50m357 854l-179-184-84-146-96-73m164-1549l-11 39m69-261l-58 222m125-328l-67 106m216-383l-106 90-43 187m529-386l-222 27-158 82m4822-65l166 152m0 0l352 374m0 0l280 298m0 0l156 164m118 127l97 102m-215-229l118 127m97 102l265 297 53 86m11-5l-68-109-261-269m1661 473l-224 62m14 4l200-55m-1103 597l115 144-25 90m-152-374l-74-288m-94-270l82 273m-49-228l-22-50m22 50l12-25 25 4m24 246l-61-225m49 228l78 305 70 120m243 169l-207-148-98-161m365 103l-94 103-54 11-144-95-73-122m285 233l142-205m-142 205l74-67 40 2 26 29-48 102-72 10m58 37l-58-37m-12 7l62 40m8-10l-8 10m0 0l-36 35m0 0l-58 39m-46-94l70-103m8 83l29 34-3 41m46-288l-195 280m-108-243l231 176m-114 71l36-51m-17 58l17-58m140 20l162 100m-250-22l106-46 141 69m10-4l-161-107m588-752l-147 79-269 209-114 140m544-424l-14-4m-119 72l133-68m-133 68l118-22 15-46m-538 430l114-139 291-223m-411 356l-56 81m2254-12801l-189 63m0 0l-239 120-206 143-511 480m0 0l-249 238m0 0l-372 353m0 0l-273 261m0 0l-100 92m0 0l-421 472-150 81-131 21m-1555 1706l-26 24m61-59l-35 35m14 5l30-30m7 41l-7-41m0 0l73-84m-11-4l-71 78m98-105l-27 27m11 4l16-31m381-669l-135 159-44 86m0 0l186-238m-186 238l-108 267-94 157m388-662l311-290 54-100 27-127m-9-4l-28 128-52 98-310 288m766-879l44-1m-115 6l71-5m-71 5l96 31m0 0l19-37m231-17l-282 9m51 8l231-17m-282 9l-154 21-123 78-62 104-30 171m9 4l24-149 51-104 90-75 131-36m-1666 7639l75 174 80 110 424 270m-1019-835l259 93 115 94 66 94m193-5764l278-187m-40 19l-234 152m-36 30l29 14m-29-14l32-14m4-16l-564 178m-6 15l534-163m-584 178l50-15m-50 15l38 28m-60 5262l5 1m-122-46l117 45m-440-423l201 281 122 97m-420-516l97 138m-196-278l95 134m0 0l4 6m-1074-1048l186 330 513 218 276 360m-1154-1089l61 59m0 0l118 122m-297-276l118 95m-231-140l113 45m-20-3090l1365-288 411-2 174-25m56-30l-206 41-462 6-1352 287m0 0l-49 10m9-37l-9 37" stroke="#ee8f45" stroke-width="93"/><path d="M-8302 3206l124 810 24 485 122 410 71 111 103 88m3070 3489l-316-907-225-340-78-158-35-160-23-416-57-173-150-183-343-230m-1828-927l-96-77-78-117-126-429-18-474-123-811m2266 2845l341 229 96 100 62 107 47 170 18 380 32 153 65 147 257 398 302 879" stroke="#ee8f45" stroke-width="101"/></g><g clip-path="url(#tc)"><g fill="none" stroke-linecap="round" stroke-linejoin="round"><path d="M-5592 7598l-68-63m169 264l-101-201m552-2479l-159 53-197 145-91 217-2 119m0 0l-31 70m204 570l-240 4-113 61m149-635l-44 33-58 115-19 158-86 240 6 41 52 48m-293 115l12-84m0 0l39-21m3 106l-3-106m0 0l104 9m138-19l-72 66-66-47m16 662l25-57m-140-424l-2-84m2 136l0-52m-91-67l35-18m161 357l9-24m-903-3716l-1-38m4868-5116l-235 82m378-130l-46 14m0 0l-97 34m276-93l-133 45m292-97l-159 52m284-97l-125 45m381-144l-77 29m0 0l-19 8m-119 46l-41 16m160-62l-119 46m-810 3208l111 21m-145-38l34 17m174 33l38-54m-101 42l63 12m38-54l23-35m84-226l8-42m1 133l-9-91m-22 174l31-83m-47 87l16-4m-62 52l46-48m-790-177l56 70 191 84m-256-164l9 10m-29-27l20 17m256 164l81 17 66 42m51 35l30 16m-81-51l51 35m-921 440l8-34m-8 34l-23-28m0 0l-13-29m0 0l-66-206m5-409l-12-77 54-109m0 0l25-48m0 0l95-195m55 1254l-120-153m145 144l-25 9m46 59l-46-59m27-1656l92 43m13-25l30-66m-43 91l13-25m30-66l32-74m50-142l12-44m0 0l9-30m0 0l8-28m0 0l18-98m0 0l-14-58m0 0l-8-33m-75 433l50-142m-34-548l-38-152m51 212l-13-60m18 79l-5-19m27 112l-2-10m0 0l-20-83m41 178l-19-85m-129-613l-21-168m37 265l-16-97m40 239l-24-142m35 192l-11-50m-111-114l87-28m-179 57l92-29m-184 58l92-29m39 1087l30 12m-82 402l174-359m-215-37l93-18m-188 36l95-18m-151-1045l113-31m234-351l8-23m0 0l109-196m0 0l57-60 160-39m0 0l195-19m0 0l210-66m-2497 6319l-86 51-14 146-62 78-78 181-159 141m1042-617l117 233 133 488m9-4920l16-3m-39 295l-43-110m49 152l-6-42m6 42l13-3m-62-149l-10-14m-42-146l118-22m-76 168l-42-146m285 275l92-18m-56-316l51-9m-146 26l95-17m-126 352l90-18m-171 34l81-16m-61-318l92-17m31-1117l-7-173m30 436l-23-263m-7-173l94 16m0 0l95 15m-71 875l-19-104m0 0l-15-80m0 0l-23-120m0 0l-31-166m125 667l-37-197m74 396l-33-179m0 0l-4-20m92-10l-92 10m4 20l88-30m-125 171l29-10-12-130 108-31m-58-1062l94-15m0 0l94-21m-130 1098l94-17m0 0l92-18m-97 1011l-17-92m0 0l-16-92m0 0l-33-165m0 0l-28-154m0 0l-21-111m-41 123l62-12m-21-111l-29-153m-65 287l53-11m187 652l-31-161m66 205l-20-45m102 4547l-346-251m0 0l-78-58-76-153-114-39m-301 1363l29-50 44 18 112 118 64 133 58 45 194 5 233-83m-238 644l-62 80m277-252l-95 55-120 117m-685-564l17-11m0 0l139-91 33-164m290-1408l11 45m0 0l-288 569-238 220-316 218m26 2110l-108 27-232-77m20-121l-22-225 33-79 36-277 44-102 174-260 179-142 53-156 100-2 49-74m-352-622l-105 35-284 25-429 143m357-1359l-49 53-32 132m228 3031l20-121m-20 121l-110 39-70 115m2688-1561l-182 37-92 59-126 41-225 150-149 29-128 74m818-2263l-11 98 17 32 149 53m0 0l21 5m256 1596l-348 89m437-108l-89 19m-256-1596l239 49 203-107m0 0l63-18 153 57m55 1360l-79-28m-115 11l-38 42-32 145-104 66m984-97l-69-77-235-17-115-38-122 23-75-30m259 482l48-140 309-203m-671-1499l195 25 161 364 614 4 94 36m-393 1070l185-93 52-53 97-214 68-243 69-102 69-61 177-22m-134-157l165 145m-355-270l190 125m165 145l246-123 216-194m-381 425l51 71m-132-179l81 108m-112-96l31-12m615 960l305-217m-480 307l175-90m-483-781l273 373 134 75 381 116m0 0l82 31 15 120 28 30 420 19m260 469l47 31 185 15 136 81 29 40 31 147m-1233-983l105-63 89 10 65-91 131-57 5-264 42-321 215-62 225 4 58-42 64-91 152-27m82 1987l250 307m1273-1257l11-5m0 0l59 29m0 0l142 157m0 0l4 5m0 0l203 214m0 0l170 180m6 6l187 362m1706-5190l70-34m0 0l409-166 350 2 122-45m0 0l77-93m189-844l-29 120 7 198-167 526m151-1386l24 112m0 0l64 285-50 145m-400-1487l28 39m-53-182l25 143m-1375-1466l44 13m-243-206l131 148 68 45m-818-870l186 178m416 479l17 20m-992-813l218 57 155 79m-943-283l570 147m-2775 1117l-272-82m457 143l-76-26m0 0l-109-35m199 65l-14-4m115 43l-101-39m188 73l-87-34m162 15l-75 19m40 16l-26-10m0 0l0 34m0-34l-14-6m54 21l-14-5m1305-1652l-25-36m0 0l-7-9m505 279l-473-234m-2076 1900l-53 106m73-225l-20 119m-53 106l-6 15m-775 6648l46-66 34-234 48-82 398-47 263 34 68-35 88-109 32-160-7-106-249-440-13-97m-1629-6610l-153 67m221-56l-68-11m-153 67l-93 43m0 0l-9 4m0 0l-95 40m0 0l-20 8m0 0l-48 16m946 45l-54-28m0 0l-20-11m0 0l-74-42m-147-83l-165-48m312 131l-147-83m395 214l-100-50m140 70l-40-20m339 162l-18-9m0 0l-63-29m0 0l-44-22m-10-4l-84-40m94 44l-10-4m-84-40l-80-38m605 243l-132-38m0 0l-11-4m0 0l-163-59m346 112l-40-11m107 31l-67-20m109 33l-42-13m49 15l-7-2m153 43l-146-41m262 76l-116-35m218 319l-18 122m52-365l-34 243m34-243l-136-41m60-225l85 143-9 123m-128-345l52 79m-101-255l-5 81 54 95m-9-299l-36 110m0 0l-4 13m63-209l-23 86m-405-710l154 155 10 185 54 160 42 29 154 0 21 36-7 59m-539-680l111 56" stroke="#5d6975" stroke-width="42"/><path d="M-6898 4559l-148 21m66-1462l40-8m0 0l176-18m-381 44l165-18m-359 37l194-19m687-51l8-1m-104 3l96-2m-306 7l69-2m0 0l141-3m1055 1271l-175 65-234 140-122 37-143-7-389-146-126 16-210 96m1472-219l-73 18m159-34l-86 16m-2087-1191l100 7m0 0l74-1m293 1425l-218-18-482 66m73-1500l59 7m0 0l101 14m-729 36l26-5m6810-2920l57-47m-183 168l126-121m57-47l112-38m0 0l152-31 135 66m-720 333l74-96m0 0l64-66m-178 233l40-71m-48 113l-42-22m0 0l50-20m-112 0l62 20m-771-219l11 7m-43 156l-67 15m45 29l10 8m55-208l205 6 493 186m-1283 2459l44-6m-10-82l-34 88m-14-2400l89-14m0 0l83-15m0 0l155-29m74-12l88-10m0 0l45 29m-207-7l74-12m-1372 227l-156-450m72 217l9 28m-759 3696l-416 3m624 19l-208-22m364 16l-156 6m449-72l-103 7-190 59m643-20l-118 27-232-73m445-2227l-116-792-152-422m0 0l-75-205m0 0l10-35m720 140l97-18m-267 49l170-31m-181 34l11-3m382-68l104-20m-132 24l28-4m-115 19l87-15m146 2376l-78 162m0 0l-117 243-67 266-65 64-161 90-263 369-61 50m8333-2397l291 118 125 5m-1190-437l774 314m-872-353l22 9m0 0l76 30m2014 410l211 43m-508-72l297 29m-556-62l259 33m-276-34l17 1m-268 89l251-90m784 106l99 89 63 124m0 0l265 584 111 188 375 339m0 0l81 52m0 0l159 73 153 168m422 74l-219 16-203-90m-5011-1813l113 17 158-90 73-14 320 46 474-264 124-19 120 28m-1590 167l208 129m-258-157l50 28m-687-203l135 45m0 0l4 1m0 0l180 39m0 0l318 90m-1828-1718l230 84m251 118l157 146m-217-187l60 41m-121-70l61 29m-191-77l130 48m278 216l130 60m0 0l205 62m151 83l58 74m-209-157l151 83m58 74l42 126-7 115-144 320-20 91m0 0l6 71m0 0l25 75m0 0l107 118m-2217-1321l54 0m0 0l17-4m0 0l380-222m0 0l119-1 88 34 76-17m0 0l102-42m0 0l78-5 112 35" stroke="#ee8f45" stroke-width="76"/><path d="M-7511 4859l85 71m0 0l56 86m1568 1776l10 14m26 176l-28-4m2-172l32 103-6 73m-1879-2230l134 107m-224-210l90 103m-90-103l-11-21m0 0l-36 6m0 0l47 15m-47-15l-131 38m0 0l-194 64m-51 16l51-16m-172 57l121-41m6076-5350l44-52 74-29 247 61 125-8 308-187 386-84m-63-1l-352 82-213 151-82 33-118 3-179-55m789 2820l125 12m-182-14l57 2m-185-5l102 2m0 0l26 1m-438-59l139 40 171 16m-479-128l169 72m-603-220l196 49 238 99m-125-2687l-88 2-63 38-42 65-8 101m30 236l0-64m0 0l76-239-131-282m-14-21l137 291-9 53-54 8-21-33 10-69m177-86l-147-48-79-95m68-1155l117 325 16 202-49 181-165 297m-1 111l1-111m-1 111l0 18m14 21l-14-39m0 18l39 370m30 172l-24-214 18-78m-24 120l21 238m-242 320l191-161 60-161m-9 2l-66 163-183 151m0 0l-132 120-58 156m12 4l53-156 132-118m-193 342l8-68m-12-4l-7 65m0 0l-32 163m-12 52l55-208m-43 156l-22 44m113 3348l34 30-6 44-94 90-131 58-9 32 124 290 176 190-10 166m-184-3042l358 27m-358-27l-119-15m-10 7l129 8m-119-15l-41-7m41 7l-35-35m-8 37l33 5m-39 38l39-38m-31-14l6-28m-50-112l37 93m13 19l-13-65-37-47m37 93l-36 37m33 8l-33-8m36-37l-3 45m0 0l-1 9m11-7l-10-2m8 11l2-9m-11 7l9 2m-6 43l6-43m-35 159l29-116m-3-45l-26 161m-37 97l37-97m-37 97l-45 95m-92 1661l65 44 161 28 92 59 153 12m-589-903l35 149-21 255 27 24 154 24m0 0l12 32-150 154 6 56 55 66m-128-842l10 82m38-231l-48 149m195-759l-147 610m172-670l-25 60m-174-504l128 59 179 32m-32-17l-145-23-130-51m-6 0l6 0m-51 8l45-8m148-716l-30 16m30-16l-15 22m0 0l-21 41m8 227l-20-117 24-106m-12-4l-24 110 20 119m0 0l36 90m0 0l-24-92m24 92l35 101m0 0l21 68m54 74l-54-74m80 109l-26-35m217-1009l-323 384m-24 67l357-443m-92-3962l-33-146m-30 16l63 130m551 1212l53 138m-137-364l84 226m-263-687l179 461m-179-461l-289-574-24-101m-28 14l341 661m-2052 2342l97 560 88 285m0 0l64 192m27 18l-27-18m8 25l19-7m-27-18l8 25m-290-1239l33 177m-52-274l19 97m309 1232l285-104 152-28m15-3l-7 1m29-46l-29 46m35-4l-28 3m28-3l3 30m0 0l27 126m1-48l-31-108m31 108l-18-111m-41 6l31 27m-38-26l-8 2m46 24l-17 28-25-9-31-167m0 0l11-48m-11 48l21-34m309 1087l43 211m-31-213l-45-232m-13 5l46 229m-33-234l-59-236m-11 1l57 240m-46-241l-79-82-19-74m-11 3l21 78 77 76m-87-157l-29-155m-11 2l29 156m-18-158l-10-46m283 1036l-42-211m302 345l-47 7m1 5l46-12m-47 7l-82-4-61-30-70-107m-11 2l86 122 65 27 74-5m94 3881l-107 247-123 565 5 105 55 92m17 501l-40-29m42-422l-42 422m23-472l19 50m357 854l-179-184-84-146-96-73m164-1549l-11 39m69-261l-58 222m125-328l-67 106m216-383l-106 90-43 187m529-386l-222 27-158 82m4822-65l166 152m0 0l352 374m0 0l280 298m0 0l156 164m118 127l97 102m-215-229l118 127m97 102l265 297 53 86m11-5l-68-109-261-269m1661 473l-224 62m14 4l200-55m-1103 597l115 144-25 90m-152-374l-74-288m-94-270l82 273m-49-228l-22-50m22 50l12-25 25 4m24 246l-61-225m49 228l78 305 70 120m243 169l-207-148-98-161m365 103l-94 103-54 11-144-95-73-122m285 233l142-205m-142 205l74-67 40 2 26 29-48 102-72 10m58 37l-58-37m-12 7l62 40m8-10l-8 10m0 0l-36 35m0 0l-58 39m-46-94l70-103m8 83l29 34-3 41m46-288l-195 280m-108-243l231 176m-114 71l36-51m-17 58l17-58m140 20l162 100m-250-22l106-46 141 69m10-4l-161-107m588-752l-147 79-269 209-114 140m544-424l-14-4m-119 72l133-68m-133 68l118-22 15-46m-538 430l114-139 291-223m-411 356l-56 81m2254-12801l-189 63m0 0l-239 120-206 143-511 480m0 0l-249 238m0 0l-372 353m0 0l-273 261m0 0l-100 92m0 0l-421 472-150 81-131 21m-1555 1706l-26 24m61-59l-35 35m14 5l30-30m7 41l-7-41m0 0l73-84m-11-4l-71 78m98-105l-27 27m11 4l16-31m381-669l-135 159-44 86m0 0l186-238m-186 238l-108 267-94 157m388-662l311-290 54-100 27-127m-9-4l-28 128-52 98-310 288m766-879l44-1m-115 6l71-5m-71 5l96 31m0 0l19-37m231-17l-282 9m51 8l231-17m-282 9l-154 21-123 78-62 104-30 171m9 4l24-149 51-104 90-75 131-36m-1666 7639l75 174 80 110 424 270m-1019-835l259 93 115 94 66 94m193-5764l278-187m-40 19l-234 152m-36 30l29 14m-29-14l32-14m4-16l-564 178m-6 15l534-163m-584 178l50-15m-50 15l38 28m-60 5262l5 1m-122-46l117 45m-440-423l201 281 122 97m-420-516l97 138m-196-278l95 134m0 0l4 6m-1074-1048l186 330 513 218 276 360m-1154-1089l61 59m0 0l118 122m-297-276l118 95m-231-140l113 45m-20-3090l1365-288 411-2 174-25m56-30l-206 41-462 6-1352 287m0 0l-49 10m9-37l-9 37" stroke="#ee8f45" stroke-width="93"/><path d="M-8302 3206l124 810 24 485 122 410 71 111 103 88m3070 3489l-316-907-225-340-78-158-35-160-23-416-57-173-150-183-343-230m-1828-927l-96-77-78-117-126-429-18-474-123-811m2266 2845l341 229 96 100 62 107 47 170 18 380 32 153 65 147 257 398 302 879" stroke="#ee8f45" stroke-width="101"/></g></g></g><path d="M-3690 -1830l168 34 355-107 96 29 107-34 87 16 58 26-97 194 131 58-17 37 523 77 115 249-555-85 33 206-44 8 38 152 130-98 69 88-495 385 10 47-442 154-5 22-114 53-636 234 47-867 76-497 54-186 161-285z" fill="none" stroke="#9b9994" stroke-width="55" stroke-dasharray="211 148"/><path d="M-3253 1808l150-70 36 64 329-76 8 38 338-6 132 23 86 83 241 76 67-34-48-154 248-61 33-321 30 7-10 63 63 14 8-65 468 97 288-93-40-180 48 15 156-308-40-185-23-22-24-185 56 16 203-721-226-41-105-231-48-296-40-116-349-280-126-22-70-117 366-186-194-352-376 202-312-670-85-358-59-126-8-143 42-59-23-80 18-262 678-188 676-272 388-182 591-335 380-611 207-510 156-213 251 280 2515 2271 756 913-251 316-16-7-58 100-3397 4003-570 594-43 134-182-34-366-143-123-107-129-45-76-127 20-32-112-43-96-183-82-70-378-35-104 27-90 70-198-94-132-125-133-70-288-66-103 50-4 46-131 55-236 33-168-45-87-64-123 31-109 62-206 47-68-164z" fill="none" stroke="#9b9994" stroke-width="55" stroke-dasharray="211 148"/><path d="M-3998 -148l204-71 33-21 222-79 114-53 5-22 442-154-10-47 89-69 29-28 22-10 84-62 271-216-69-88-130 98-38-152 44-8-33-206 250 45 305 40-115-249-133-13-390-64 17-37-131-58 97-194-58-26-87-16-86 32-21 2-50-8-29-19-17-2-133 49-222 58-168-34-41-19-3 4-103-75 540-705 124-117 151-97 276-143 246-124 455-208-18 262 23 80-16 8-26 51 9 67-1 76 42 77 17 49-2 12 25 84 62 262 312 670 376-202 194 352-366 186 42 68 19 41 9 8 31 9 67 1 28 12 121 106 151 104 24 27 26 6 27 37 17 25 23 91 48 296 40 81 43 70 13 37 4 33 5 10 23 16 75 2 98 14 30 9-48 161-2 29-47 171-29 87-77 273-56-16 24 185 23 22 40 185-103 184-53 124-48-15 22 153 18 27-288 93-468-97-8 65-63-14 10-63-30-7-33 321-248 61 48 154-61 27-6 7-105-42-136-34-64-72-22-11-132-23-80 8-258-2 0-18-8-20-199 40-105 26-25 10-21-58-15-6-23 4-163 84-197 127-478-1286-211-752 149-58z" fill="none" stroke="#9b9994" stroke-width="84"/><path d="M-5870 4540l-116 52-66 11-88-3-86-23-258-113-68-15-67 0-104 29-140 66-87 29-96 9-222-19-90 5-448 71-266 86-64-223-18-108-1-64 27-295-4-83-54-332 366-38 755-57 83-18 216-19 210 22 229 49 193 64 486 111 307 67 373 57 191-13 219-29 193-49 326-154 233-164 130-107 201-214 67-115 88-260 41-99 7-114-12-101-26-89-87-179-567-1504-211-752 31-664 16-203 41-348 89-335 84-167 77-118 559-730 532-332 246-124 455-208 678-188 685-276 379-178 378-202 241-151 354-595 113-348 92-160 103-148 53-65 28-23 181-105 646-552 74-73 680-950 249-438 145-386 23-124 193-2 577 72 96-63-27 37-81 75 345 1069-94 477 225 144 85 63 30 47 6 39-12 28-132 131-221 183-43 99 254 115 174 116 42 2 42-13 75-49 41-56 27-10 143 20 164-3 93 15 157-38 50 21 50 63 14 2 94-51 116 78 147 73 55 12 208 15 17 5 22 23 49 154 12 67-11 71-38 145-1 12 6 4-13 69 5 26 8 10-348 1223-643 653-183-77-256 347-50-27-164-48-120-60-141-32-145-2-86-33-34-24-19-25-16 14 79 107 395 95-66 30-45 2-54 140 45 67 386 459 813 716 761 755 425 407-195 222-53 44-62 28-14 30 5 61-35 5-51-35-43-18-87-11-80 14-53-8-60 56 182 31 77 122 56 72 135 86 26 45 549 482 72-63 66 2 81 84 20 39 105 84 49 53-13 67 11 152-8 75-145 465-29 68-60 69-82 38-50 7-245-12 45 44 204 80 66 78 32 20 148 50 108 81 102 27 34 31 66 88 36 33 165 108 54-6 61-46 115-46 49-8 68 3 145-49 70 15-1492 1583-427 234-40-13-36 7-50 92-40 54-42 42-42 26-59 8-14 12-16 37-41 37-78 50-24 12-32 2-38-11-40 7-101 66-71 11-108 84-35 45-119 48-133 105-63 27-11 18-123 13-226-5-247 29-121 48-75 45-37 11-75 59-109 6-59 33-111-33-136 64-264 168 45 10 75 39 186 26 160 83 400 90 67-20 313-247 22-7 127 20 100 26 131 68 58 18 38-4 103-32-161 129-296 329-670 714 7 14 25 10 72-18 75 60-119 106-78 107-8-19-131-54-39-37-78-43-10-22-2-48-16-46 2-26-145-168-85-81-72-27-38-32-50-7-59-49-46-54-73-125-129-151-30-90-45-35-48-64-77-76-39-11-77-4-48-19-65-91-15-31-11-52-34-49-121-136-73 38-60 53-97 46-29 27-24 38 0 27 44 87 0 59-10 12-68 15-12 28 12 28 66 82 4 20-32 70-107 90-31 40 20 218 37 142 0 31-78 185-62 48-32 44-11 34 12 47 137 229 34 34 34 13 22 48-13 21-138 83-60 64-33-150-24-32-33-18-6-1610 14-174-114 16-40 14-17 15-42 72-59 43-238-1-204 62-18 38-4 116-22 193 6 173-6 57-17 23-25 14-59 10-34 17-52 79-17 14-52-12-41 2-98 60-157-39-72-33-156-47-70-33-51-34-47-46-103-156-263-355-105 26-97 7-36 23-80 94-19 33-59 160-28 129-92 194-35 34-189 97-28-46-33-26-238-18-67-21 112-347-425-590-250 174-59 11-49 29-45 48-18 53 5 13-8 12-258 121 20 314 21 131 96 210 141 51-206 46-140 42-189 39-22 14 23 34-21 64-178 92-114 76-74 9-46 35-48 1-104-17-25 8-79 53-63-45 21-178-2-114 23-111 0-21-18-48-108 24-99 50-40 10-106 3-84-14-30-22-46-53-33-92-13-17-104-108-30-21-18 4-21 44-22 135-19 39-57 50-97 46-17 16-30 58-22 4-59-13-20 10-54 163-75 40-90 82-187 276-41 96-34 167-1 107-34 78 4 111 18 106-20 139-61 11-14-13-28 6-22 14 8 24-7 6-161-462-36-73-233-348-50-112-28-99-11-80-21-391-17-80-20-58-28-59-61-89-62-65-55-41 73-200 20-163 37-56 23-66 49-36 10-16 18-57 3-119 26-56 13-72 45-78 24-26 176-124 45-19 104-25 16-14 21-113 14-31 134-100 72-89 64-155 67-86 7-35 7-115 14-16 61-15 9-25-96 11-355-35-134-4-178 14-153 32-147 50z" fill="none" stroke="#9b9994" stroke-width="68" stroke-opacity=".7"/><text x="1518" y="-1594" font-family="'Radio Canada', 'Helvetica Neue', Arial, sans-serif" font-size="590.9" font-weight="700" text-anchor="middle" letter-spacing="35.5" fill="#9b9994" stroke="#0b0f13" stroke-width="141.8" stroke-linejoin="round" paint-order="stroke">LOWER BURRELL</text><text x="-2291" y="298" font-family="'Radio Canada', 'Helvetica Neue', Arial, sans-serif" font-size="590.9" font-weight="700" text-anchor="middle" letter-spacing="35.5" fill="#d5dce2" stroke="#0b0f13" stroke-width="141.8" stroke-linejoin="round" paint-order="stroke">NEW KENSINGTON</text><text x="-3938" y="-2186" font-family="'Radio Canada', 'Helvetica Neue', Arial, sans-serif" font-size="590.9" font-weight="700" text-anchor="start" letter-spacing="35.5" fill="#9b9994" stroke="#0b0f13" stroke-width="141.8" stroke-linejoin="round" paint-order="stroke">ARNOLD</text></svg>
